<?xml version="1.0" encoding="UTF-8" standalone="no"?><!DOCTYPE svg PUBLIC "-//W3C//DTD SVG 1.1//EN" "http://www.w3.org/Graphics/SVG/1.1/DTD/svg11.dtd"><svg width="100%" height="100%" viewBox="0 0 1920 1080" version="1.1" xmlns="http://www.w3.org/2000/svg" xmlns:xlink="http://www.w3.org/1999/xlink" xml:space="preserve" style="fill-rule:evenodd;clip-rule:evenodd;stroke-linejoin:round;stroke-miterlimit:1.41421;"><g><path d="M1101.41,429.62c-8.608,0 -17.108,-1.332 -25.331,-3.75c3.489,-8.086 5.349,-16.649 5.349,-25.674c1.613,-42.069 4.726,-90.167 -31.265,-119.037c12.989,-8.286 24.417,-16.741 34.3,-28.315c7.586,-8.694 13.173,-18.058 16.324,-28.1c6.433,-1.556 12.904,-2.302 19.559,-2.302c4.366,0 8.823,0.323 13.404,0.939c30.188,3.881 47.096,24.134 59.346,47.852c-24.916,5.875 -43.215,32.012 -38.073,58.286c0.676,3.535 1.598,6.885 2.674,10.119c6.003,17.642 18.706,33.721 36.429,39.65c0.569,0.185 1.137,0.37 1.706,0.54c-1.16,1.832 -2.367,3.68 -3.604,5.536c-4.896,7.123 -11.767,13.469 -19.26,18.459c-20.312,12.452 -39.887,22.963 -63.128,25.366c-2.82,0.292 -5.633,0.431 -8.43,0.431" style="fill:#f37121;fill-rule:nonzero;"/><path d="M1214.65,382.36c-6.341,0 -12.581,-0.677 -18.814,-2.533c6.11,-9.657 11.129,-19.19 14.303,-30.202c4.565,-15.055 4.488,-29.64 -1.614,-43.101c-4.704,-11.612 -9.523,-23.856 -15.425,-35.292c2.529,-0.593 5.134,-0.978 7.778,-1.14c7.347,0 14.694,-0.385 22.034,-0.385c3.635,0 7.27,0.1 10.905,0.378c7.624,0.847 14.372,3.38 21.143,7.608c21.949,13.545 20.274,38.95 19.444,60.951c-0.016,8.455 -3.374,16.094 -9.292,22.848c-5.065,5.929 -10.975,10.172 -17.753,14.392c-4.219,2.549 -9.292,4.228 -14.349,5.098c-6.271,0.778 -12.358,1.378 -18.36,1.378" style="fill:#84bfd9;fill-rule:nonzero;"/><path d="M1195.83,379.824c-0.569,-0.169 -1.137,-0.346 -1.706,-0.539c-17.723,-5.921 -30.426,-22 -36.429,-39.643c-1.076,-3.234 -1.998,-6.591 -2.674,-10.126c-5.142,-26.267 13.157,-52.411 38.073,-58.279c5.902,11.436 10.721,23.672 15.425,35.285c6.102,13.461 6.179,28.053 1.614,43.108c-3.174,11.004 -8.193,20.546 -14.303,30.194" style="fill:#975a2a;fill-rule:nonzero;"/><path d="M803.696,472.949c-18.069,0 -35.791,-2.103 -53.521,-8.025c-46.289,-15.455 -79.344,-57.377 -95.068,-103.427c-2.775,-8.363 -5.18,-17.18 -7.032,-26.367c-14.726,-75.49 44.759,-150.571 119.661,-155.022l0.131,0c9.552,0 19.113,-0.247 28.666,-0.493c9.545,-0.246 19.091,-0.493 28.636,-0.493c9.507,0 19.006,0.247 28.513,0.978c0.284,0.031 0.568,0.062 0.853,0.1c0.269,2.049 0.599,4.105 0.999,6.161c1.483,7.346 3.404,14.338 5.641,21.015c7.639,22.432 20.443,43.64 37.666,59.549c-42.854,18.22 -71.981,66.295 -62.567,114.547c1.46,7.254 3.343,14.177 5.526,20.769c7.578,22.201 20.274,43.201 37.351,58.926c-8.662,3.85 -18.13,6.584 -27.621,8.162c-16.34,2.049 -32.218,3.62 -47.834,3.62" style="fill:#18b583;fill-rule:nonzero;"/><path d="M1022.04,265.228c-7.647,-2.934 -15.525,-4.867 -23.917,-5.799c-7.463,-0.57 -14.918,-0.762 -22.372,-0.762c-7.448,0 -14.895,0.192 -22.342,0.385c-6.94,-23.279 -20.159,-44.009 -44.637,-59.11c-17.368,-10.866 -34.776,-17.458 -54.243,-19.745c-7.47,-58.032 38.719,-113.969 96.398,-117.389c15.217,-0.015 30.442,-0.8 45.659,-0.8c7.616,0 15.232,0.2 22.848,0.785c15.794,1.74 29.85,7.054 43.922,15.833c45.659,28.145 42.155,80.949 40.402,126.706c0,6.731 -1.022,13.199 -2.974,19.406c-2.052,0.5 -4.104,1.078 -6.156,1.748c-18.114,6.576 -35.015,15.856 -52.522,23.795c-7.539,3.958 -14.256,9.04 -20.066,14.947" style="fill:#febe0f;fill-rule:nonzero;"/><path d="M1050.16,281.159c-2.659,-2.141 -5.541,-4.174 -8.653,-6.091c-6.433,-4.028 -12.866,-7.308 -19.467,-9.842c5.81,-5.906 12.527,-10.981 20.066,-14.947c17.507,-7.931 34.408,-17.218 52.522,-23.795c2.052,-0.662 4.104,-1.247 6.156,-1.74c-3.151,10.042 -8.738,19.406 -16.324,28.1c-9.883,11.574 -21.311,20.029 -34.3,28.315" style="fill:#f16022;fill-rule:nonzero;"/><path d="M898.839,266.927c-17.223,-15.917 -30.027,-37.124 -37.666,-59.549c-2.236,-6.684 -4.158,-13.668 -5.641,-21.015c-0.399,-2.056 -0.73,-4.112 -0.999,-6.168c19.467,2.295 36.875,8.886 54.243,19.752c24.478,15.093 37.697,35.824 44.637,59.103c-0.077,0 -0.154,0 -0.23,0.007c-7.524,0.193 -15.048,0.385 -22.572,0.385l-0.131,0c-11.075,0.655 -21.727,3.273 -31.641,7.485" style="fill:#4c9246;fill-rule:nonzero;"/><path d="M958.831,489.995c-14.241,0 -28.205,-1.656 -42.169,-6.315c-14.134,-4.705 -26.699,-12.552 -37.513,-22.509c3.428,-1.525 6.725,-3.219 9.845,-5.09c17.608,-11.066 33.032,-22.078 46.251,-37.541c15.417,-17.673 24.247,-37.54 24.232,-59.626c0.792,-20.776 1.875,-42.7 0.223,-63.892c6.563,0.847 13.157,1.209 19.813,1.209c7.693,0 15.47,-0.478 23.363,-1.232c-10.506,26.69 -8.677,58.394 8.815,83.113c3.666,5.113 7.563,9.795 11.559,14.154c14.441,15.393 32.832,27.722 52.83,33.605c-3.236,7.501 -7.87,14.593 -13.727,21.285c-10.406,12.152 -22.533,20.869 -36.436,29.547c-8.654,5.221 -19.075,8.694 -29.466,10.45c-12.857,1.61 -25.338,2.842 -37.62,2.842" style="fill:#812a7f;fill-rule:nonzero;"/><path d="M1076.08,425.872c-19.998,-5.883 -38.389,-18.212 -52.83,-33.606c-3.996,-4.366 -7.893,-9.04 -11.559,-14.153c-17.492,-24.727 -19.321,-56.423 -8.815,-83.114c4.904,-0.469 9.853,-1.047 14.856,-1.678c10.529,-1.748 21.05,-5.252 29.858,-10.535c0.868,-0.539 1.729,-1.086 2.574,-1.625c35.991,28.862 32.878,76.968 31.265,119.029c0,9.033 -1.86,17.589 -5.349,25.682" style="fill:#833135;fill-rule:nonzero;"/><path d="M879.149,461.17c-17.077,-15.733 -29.773,-36.733 -37.351,-58.934c-2.182,-6.584 -4.065,-13.514 -5.525,-20.761c-9.415,-48.252 19.713,-96.327 62.566,-114.547c10.967,10.134 23.733,18.12 38.089,22.91c7.57,2.533 15.148,4.189 22.772,5.182c1.652,21.192 0.569,43.124 -0.223,63.893c0.015,22.085 -8.815,41.953 -24.232,59.626c-13.219,15.463 -28.643,26.475 -46.251,37.54c-3.12,1.872 -6.417,3.566 -9.845,5.091" style="fill:#493451;fill-rule:nonzero;"/><path d="M979.513,296.232c-6.656,0 -13.25,-0.362 -19.813,-1.217c-0.969,-12.36 -2.859,-24.473 -6.287,-35.962c7.447,-0.193 14.894,-0.385 22.342,-0.385c7.454,0 14.909,0.192 22.372,0.762c8.392,0.924 16.27,2.865 23.917,5.799c-8.347,8.493 -14.818,18.697 -19.168,29.77c-7.893,0.755 -15.67,1.233 -23.363,1.233" style="fill:#833135;fill-rule:nonzero;"/><path d="M1002.88,294.996c4.35,-11.066 10.821,-21.269 19.168,-29.77c6.601,2.533 13.034,5.821 19.467,9.849c3.112,1.909 5.994,3.942 8.653,6.083c-0.845,0.547 -1.706,1.086 -2.574,1.633c-8.808,5.275 -19.329,8.779 -29.858,10.534c-5.003,0.632 -9.952,1.202 -14.856,1.671" style="fill:#833135;fill-rule:nonzero;"/><path d="M959.7,295.019c-7.624,-0.994 -15.202,-2.649 -22.772,-5.175c-14.356,-4.798 -27.122,-12.783 -38.089,-22.917c9.914,-4.213 20.566,-6.831 31.641,-7.485l0.131,0c7.524,0 15.048,-0.193 22.572,-0.385c0.076,0 0.153,-0.008 0.23,-0.008c3.428,11.497 5.318,23.61 6.287,35.97" style="fill:#4a3538;fill-rule:nonzero;"/></g><g><path d="M160.469,768.146c-6.163,-9.641 -22.718,-20.822 -38.111,-20.822c-11.16,0 -17.3,5.775 -17.3,13.091c0,29.717 101.201,20.838 101.201,98.345c0,40.898 -28.082,72.509 -81.573,72.509c-41.585,0 -69.291,-19.282 -87.382,-41.268l41.201,-43.947c14.617,17.349 33.085,30.471 49.64,30.471c12.688,0 16.162,-7.346 16.162,-13.122c0,-30.856 -100.847,-28.939 -100.847,-99.523c0,-35.839 25.799,-69.776 81.226,-69.776c31.933,0 57.341,11.182 77.746,35.462l-41.963,38.58Z" style="fill:#13b68c;fill-rule:nonzero;"/><path d="M332.384,793.211c-0.376,-28.939 -7.677,-48.206 -23.847,-48.206c-16.562,0 -24.632,19.267 -26.169,48.206l50.016,0Zm-50.785,38.172c1.53,23.148 8.854,47.051 34.247,47.051c15.001,0 22.702,-8.101 33.485,-24.295l41.57,38.565c-19.628,23.156 -42.715,41.275 -80.435,41.275c-61.599,0 -91.994,-45.126 -91.994,-115.71c0,-72.494 31.948,-121.093 92.747,-121.093c73.526,0 81.588,70.97 81.588,122.641l0,11.566l-111.208,0Z" style="fill:#13b68c;fill-rule:nonzero;"/><rect x="415.205" y="644.343" width="63.881" height="281.528" style="fill:#13b68c;fill-rule:nonzero;"/><path d="M521.795,925.868l0,-173.534l-19.629,0l0,-52.449l19.629,0c0,-52.457 35.029,-78.285 82.356,-78.285c5.395,0 11.159,0.392 16.946,1.147l-6.54,51.695c-3.474,-0.786 -6.917,-1.163 -9.637,-1.163c-13.45,0 -19.237,8.109 -19.237,22.755l0,3.851l30.403,0l0,52.449l-30.403,0l0,173.534l-63.888,0Z" style="fill:#13b68c;fill-rule:nonzero;"/><path d="M829.671,925.868l0,-143.078c0,-12.722 -6.164,-31.242 -25.792,-31.242c-18.092,0 -24.255,13.892 -24.255,26.621l0,147.699l-63.874,0l0,-281.528l63.874,0l0,52.079c0,6.161 -0.369,14.262 -0.369,14.262l0.761,0c13.096,-11.189 27.713,-14.647 46.95,-14.647c47.349,0 66.586,42.023 66.586,86.386l0,143.448l-63.881,0Z" style="fill:#13b68c;fill-rule:nonzero;"/><path d="M1030.54,790.504c-0.385,-28.923 -7.701,-48.206 -23.848,-48.206c-16.562,0 -24.639,19.283 -26.192,48.206l50.04,0Zm-50.808,38.188c1.537,23.133 8.845,47.043 34.269,47.043c15.002,0 22.702,-8.093 33.47,-24.295l41.554,38.557c-19.613,23.133 -42.723,41.268 -80.427,41.268c-61.575,0 -91.971,-45.118 -91.971,-115.695c0,-72.486 31.933,-121.101 92.747,-121.101c73.511,0 81.596,70.97 81.596,122.657l0,11.566l-111.238,0Z" style="fill:#13b68c;fill-rule:nonzero;"/><rect x="1112.12" y="644.343" width="63.873" height="281.528" style="fill:#13b68c;fill-rule:nonzero;"/><path d="M1272.2,856.832c0,13.884 6.525,28.531 22.702,28.531c27.714,0 27.714,-40.883 27.714,-66.311c0,-22.763 0,-72.894 -28.09,-72.894c-17.315,0 -22.326,18.112 -22.326,30.849l0,79.825Zm-63.889,146.158l0,-272.649c0,-18.89 -3.474,-30.064 -3.474,-30.456l55.035,0c0,0 3.851,9.641 5.011,27.776l0.784,0c5.757,-19.283 22.311,-33.19 48.48,-33.19c48.502,0 72.757,52.08 72.757,120.338c0,68.251 -24.255,116.457 -70.436,116.457c-25.808,0 -37.351,-9.248 -43.884,-19.675l-0.776,0c0,0 0.392,11.181 0.392,15.432l0,75.967l-63.889,0Z" style="fill:#13b68c;fill-rule:nonzero;"/><path d="M1611.25,925.868c0,0 -5.019,-11.174 -6.164,-27.769l-0.753,0c-8.477,16.595 -24.655,33.167 -51.976,33.167c-47.734,0 -67.362,-37.025 -67.362,-86.378l0,-145.003l63.903,0l0,148.091c0,15.032 6.548,31.234 25.77,31.234c17.73,0 23.486,-13.499 24.255,-25.435l0,-153.89l63.904,0l0,195.527c0,20.445 3.458,30.456 3.458,30.456l-55.035,0Z" style="fill:#13b68c;fill-rule:nonzero;"/><path d="M1811.35,925.868l-35.784,-68.628c-6.179,-11.959 -11.543,-24.319 -11.543,-24.319l-0.784,0l-4.235,5.783l0,87.164l-63.896,0l0,-281.528l63.896,0l0,76.359c0,13.892 -0.384,30.849 -0.384,30.849l0.776,0c0,0 10.383,-14.254 20.39,-25.82l21.941,-25.843l73.895,0l-68.884,83.298l76.585,142.685l-71.973,0Z" style="fill:#13b68c;fill-rule:nonzero;"/></g></svg>